HIERARCHY
ROOT root
{
	OFFSET 0.000000 0.000000 0.000000
	CHANNELS 6 Xposition Yposition Zposition Zrotation Yrotation Xrotation
	JOINT lhip
	{
		OFFSET 0.058581 -0.082280 -0.017664
		CHANNELS 3 Zrotation Yrotation Xrotation
		JOINT lknee
		{
			OFFSET 0.043451 -0.386469 0.008037
			CHANNELS 3 Zrotation Yrotation Xrotation
			JOINT lankle
			{
				OFFSET -0.014790 -0.426874 -0.037428
				CHANNELS 3 Zrotation Yrotation Xrotation
				JOINT ltoe
				{
					OFFSET 0.041054 -0.060286 0.122042
					CHANNELS 3 Zrotation Yrotation Xrotation
					End Site
					{
						OFFSET 0.000000 0.000000 0.000000
					}
				}
			}
		}
	}
	JOINT rhip
	{
		OFFSET -0.060310 -0.090513 -0.013543
		CHANNELS 3 Zrotation Yrotation Xrotation
		JOINT rknee
		{
			OFFSET -0.043257 -0.383688 -0.004843
			CHANNELS 3 Zrotation Yrotation Xrotation
			JOINT rankle
			{
				OFFSET 0.019056 -0.420046 -0.034562
				CHANNELS 3 Zrotation Yrotation Xrotation
				JOINT rtoe
				{
					OFFSET -0.034840 -0.062106 0.130323
					CHANNELS 3 Zrotation Yrotation Xrotation
					End Site
					{
						OFFSET 0.000000 0.000000 0.000000
					}
				}
			}
		}
	}
	JOINT lowerback
	{
		OFFSET 0.004439 0.124404 -0.038385
		CHANNELS 3 Zrotation Yrotation Xrotation
		JOINT upperback
		{
			OFFSET 0.004488 0.137956 0.026820
			CHANNELS 3 Zrotation Yrotation Xrotation
			JOINT chest
			{
				OFFSET -0.002265 0.056032 0.002855
				CHANNELS 3 Zrotation Yrotation Xrotation
				JOINT lowerneck
				{
					OFFSET -0.013390 0.211636 -0.033468
					CHANNELS 3 Zrotation Yrotation Xrotation
					JOINT upperneck
					{
						OFFSET 0.010113 0.088937 0.050410
						CHANNELS 3 Zrotation Yrotation Xrotation
						End Site
						{
							OFFSET 0.000000 0.000000 0.000000
						}
					}
				}
				JOINT lclavicle
				{
					OFFSET 0.071702 0.114000 -0.018898
					CHANNELS 3 Zrotation Yrotation Xrotation
					JOINT lshoulder
					{
						OFFSET 0.122921 0.045205 -0.019046
						CHANNELS 3 Zrotation Yrotation Xrotation
						JOINT lelbow
						{
							OFFSET 0.255332 -0.015649 -0.022946
							CHANNELS 3 Zrotation Yrotation Xrotation
							JOINT lwrist
							{
								OFFSET 0.265709 0.012698 -0.007375
								CHANNELS 3 Zrotation Yrotation Xrotation
								End Site
								{
									OFFSET 0.000000 0.000000 0.000000
								}
							}
						}
					}
				}
				JOINT rclavicle
				{
					OFFSET -0.082954 0.112472 -0.023707
					CHANNELS 3 Zrotation Yrotation Xrotation
					JOINT rshoulder
					{
						OFFSET -0.113228 0.046853 -0.008472
						CHANNELS 3 Zrotation Yrotation Xrotation
						JOINT relbow
						{
							OFFSET -0.260127 -0.014369 -0.031269
							CHANNELS 3 Zrotation Yrotation Xrotation
							JOINT rwrist
							{
								OFFSET -0.269108 0.006794 -0.006027
								CHANNELS 3 Zrotation Yrotation Xrotation
								End Site
								{
									OFFSET 0.000000 0.000000 0.000000
								}
							}
						}
					}
				}
			}
		}
	}
}
MOTION
Frames: 16
Frame Time: 0.033333
0.359862 0.151044 0.992608 86.159128 0.037719 90.517609 5.138214 5.698504 5.656578 -4.050000 0.863858 -6.715276 1.005129 9.448287 -2.945257 0.000000 -0.000000 0.000000 -5.934561 -3.586681 1.703356 2.362149 -0.962772 -0.583860 4.718155 -3.411914 -5.905094 0.000000 -0.000000 0.000000 -4.673364 3.277705 -9.493973 2.872687 -2.565124 16.559794 -0.515336 1.040301 -5.207209 3.538263 3.325243 8.013103 5.851394 -3.164920 -3.283283 -29.078009 -2.055337 -0.700823 -53.546271 -5.797308 16.857118 1.335381 -18.665850 5.161348 -5.658175 -16.040622 11.138340 31.668555 4.536723 5.094961 53.698085 3.698608 13.967355 -9.845969 25.141190 -4.109472 1.129191 13.015442 5.096791 
0.360000 0.151133 0.992496 86.149348 0.043149 90.367987 5.176106 5.721158 5.850262 -4.080127 0.833039 -6.740485 1.018657 9.420557 -2.990233 0.000000 -0.000000 0.000000 -5.945099 -3.615904 1.887388 2.357465 -0.877778 -0.610004 4.676313 -3.423497 -5.929379 0.000000 -0.000000 0.000000 -4.583119 3.240668 -9.160755 2.758174 -2.428137 16.256750 -0.541254 1.095362 -5.073777 3.684334 3.122434 7.639019 5.779930 -3.111498 -2.790926 -29.417372 -1.995405 -0.480944 -52.991059 -5.309024 16.683107 1.496304 -20.286777 5.225906 -5.445416 -15.252184 10.954273 31.786182 4.480563 5.200543 53.642615 3.672733 13.920925 -9.941263 25.372928 -4.106525 1.320513 12.632637 5.143002 
0.360192 0.151344 0.992477 86.174814 0.018131 90.370267 5.097464 5.678829 5.861203 -4.025921 0.847870 -6.759959 0.957250 9.420279 -2.996611 0.000000 -0.000000 0.000000 -5.989614 -3.568465 1.933773 2.363158 -0.870796 -0.671401 4.673260 -3.472455 -5.891285 0.000000 -0.000000 0.000000 -4.569080 3.162321 -9.123961 2.683746 -2.394145 16.064103 -0.489832 1.087242 -4.876895 3.708715 3.149415 7.452593 5.750560 -3.111206 -2.626564 -29.353042 -1.976242 -0.499370 -53.017911 -5.284402 16.555215 1.482211 -20.294861 5.333893 -5.513702 -15.399714 11.169556 31.646969 4.451745 5.273561 53.787331 3.834198 13.936812 -9.894920 25.303598 -3.940125 1.276452 12.621298 5.166944 
0.360452 0.151445 0.992516 86.166994 0.005316 90.380169 5.058451 5.694115 5.890822 -4.007767 0.828656 -6.804951 0.950614 9.431089 -2.950247 0.000000 -0.000000 0.000000 -6.009330 -3.550427 1.936857 2.351169 -0.860561 -0.670809 4.676303 -3.489710 -5.895859 0.000000 -0.000000 0.000000 -4.541180 3.141971 -9.029683 2.669317 -2.340562 15.909668 -0.468529 1.149784 -4.877201 3.596747 3.031091 7.467572 5.801871 -3.090018 -2.686329 -29.336750 -2.090145 -0.400454 -53.122487 -5.253776 16.604221 1.679868 -20.306617 5.305511 -5.718811 -15.397858 11.150593 31.504083 4.508823 5.256883 53.999999 3.610064 13.893050 -10.003431 25.399128 -3.916929 1.329009 12.552201 5.052918 
0.360561 0.151500 0.992527 86.155005 0.008825 90.395500 5.050608 5.694448 5.886984 -4.003597 0.831534 -6.813185 0.956539 9.446691 -2.962612 0.000000 -0.000000 0.000000 -6.004554 -3.545915 1.939638 2.342468 -0.839019 -0.705501 4.675581 -3.495647 -5.876997 0.000000 -0.000000 0.000000 -4.521285 3.143242 -9.018891 2.666830 -2.331971 15.858605 -0.474206 1.157738 -4.887201 3.569133 3.005534 7.500858 5.810789 -3.031604 -2.713891 -29.355969 -2.107988 -0.381042 -53.107591 -5.200650 16.625589 1.716295 -20.386062 5.219718 -5.754009 -15.357028 11.120428 31.471557 4.516153 5.249764 54.053664 3.536505 13.903953 -10.025546 25.405493 -3.905263 1.379757 12.545725 5.037946 
0.360692 0.151509 0.992533 86.139171 0.024424 90.401610 5.060461 5.678422 5.901867 -4.017690 0.835290 -6.830083 0.971568 9.447591 -2.969442 0.000000 -0.000000 0.000000 -5.985093 -3.531807 1.936647 2.327052 -0.823671 -0.710677 4.680348 -3.505839 -5.877723 0.000000 -0.000000 0.000000 -4.480736 3.126409 -8.965910 2.643505 -2.316040 15.749006 -0.477585 1.146763 -4.857003 3.602159 3.026028 7.434395 5.803277 -3.030931 -2.608663 -29.233266 -2.059725 -0.371016 -53.246290 -5.250946 16.637998 1.702379 -20.364798 5.327629 -5.723640 -15.361375 11.005144 31.390062 4.457637 5.277410 54.234039 3.568690 13.960031 -10.068517 25.436231 -3.955794 1.207788 12.509586 4.823009 
0.360795 0.151666 0.992508 86.140867 0.000979 90.499250 4.998416 5.595044 5.766502 -3.999595 0.908300 -6.784415 0.945725 9.446219 -2.968428 0.000000 -0.000000 0.000000 -5.995866 -3.451776 1.846202 2.302162 -0.878118 -0.742946 4.727559 -3.547689 -5.833819 0.000000 -0.000000 0.000000 -4.552622 3.085106 -9.140107 2.665108 -2.369952 15.695080 -0.378746 1.033383 -4.655340 3.601346 3.344549 7.325028 5.752803 -3.224048 -2.548984 -28.647747 -1.986016 -0.604931 -54.034670 -5.933497 16.524448 1.382635 -18.849867 5.569021 -5.897874 -15.916938 10.964144 31.194170 4.366187 5.338716 54.394340 4.030816 14.127995 -9.944370 25.117140 -3.831919 0.856752 12.742019 4.825791 
0.360926 0.151765 0.992500 86.145290 -0.009984 90.512275 4.981942 5.600615 5.755915 -4.008829 0.923674 -6.779633 0.979982 9.423668 -2.972317 0.000000 -0.000000 0.000000 -6.012960 -3.467634 1.833684 2.298403 -0.900072 -0.727389 4.728870 -3.522114 -5.853736 0.000000 -0.000000 0.000000 -4.579294 3.075894 -9.150632 2.677699 -2.400279 15.703315 -0.368662 1.017520 -4.657831 3.599511 3.378848 7.259692 5.763023 -3.294845 -2.394177 -28.634857 -1.961284 -0.611481 -54.079283 -5.968137 16.472923 1.338922 -18.910680 5.578293 -5.975351 -15.860751 10.926887 31.239029 4.355628 5.334592 54.365026 4.062296 14.127088 -10.042717 25.111314 -3.793938 1.224517 12.890325 4.987292 
0.361138 0.151853 0.992467 86.113673 -0.008506 90.523185 4.973947 5.613795 5.771518 -4.006580 0.927206 -6.799145 0.984069 9.434478 -2.981502 0.000000 -0.000000 0.000000 -6.016560 -3.456567 1.824264 2.292014 -0.884394 -0.719000 4.739265 -3.520335 -5.860178 0.000000 -0.000000 0.000000 -4.579076 3.048259 -9.160672 2.691885 -2.401710 15.697812 -0.362194 1.011361 -4.644385 3.573904 3.411420 7.300484 5.743612 -3.325658 -2.487345 -28.623040 -1.948378 -0.637327 -54.135147 -5.953264 16.498989 1.368349 -18.893400 5.557082 -5.960836 -15.849941 10.901371 31.225232 4.365993 5.330363 54.392312 4.093153 14.144200 -10.069436 25.079069 -3.809335 1.264976 12.857080 4.960096 
0.361378 0.151934 0.992432 86.063167 -0.004407 90.532700 4.969692 5.626605 5.788398 -4.010391 0.947584 -6.801913 0.984442 9.449904 -3.009003 0.000000 -0.000000 0.000000 -6.022727 -3.445409 1.823629 2.291790 -0.849095 -0.720287 4.761628 -3.489847 -5.859556 0.000000 -0.000000 0.000000 -4.555243 3.066431 -9.147046 2.682347 -2.389164 15.668471 -0.358159 0.983161 -4.617986 3.541075 3.424940 7.244810 5.702767 -3.334840 -2.546717 -28.609203 -1.945497 -0.641596 -54.170108 -5.960863 16.485573 1.388110 -18.805636 5.601782 -5.824272 -15.979729 10.985617 31.225073 4.355995 5.316391 54.392667 4.102860 14.152402 -10.033442 25.103409 -3.723143 1.137389 12.858597 4.910590 
0.361522 0.152024 0.992433 86.041695 -0.001621 90.559990 4.959380 5.624713 5.776885 -4.006763 0.964191 -6.811336 0.973585 9.456975 -3.015600 0.000000 -0.000000 0.000000 -6.021573 -3.436156 1.809867 2.281889 -0.835846 -0.737451 4.769033 -3.503634 -5.855569 0.000000 -0.000000 0.000000 -4.550291 3.073932 -9.156512 2.684503 -2.387885 15.644206 -0.347966 0.973723 -4.586253 3.540420 3.446854 7.172128 5.679337 -3.347824 -2.532191 -28.532213 -1.925063 -0.677029 -54.301080 -6.048265 16.478172 1.382140 -18.633635 5.636670 -5.806909 -16.023558 11.008123 31.222694 4.331959 5.296349 54.395567 4.144937 14.166315 -10.006392 25.056001 -3.715308 1.074162 12.861290 4.888295 
0.361702 0.152162 0.992401 86.020566 -0.001202 90.564080 4.951631 5.636249 5.789277 -4.013737 0.969959 -6.815392 0.980673 9.459395 -3.029030 0.000000 -0.000000 0.000000 -6.024308 -3.444450 1.824207 2.261468 -0.824306 -0.771775 4.786694 -3.494200 -5.832989 0.000000 -0.000000 0.000000 -4.534421 3.073220 -9.129896 2.667007 -2.394214 15.631398 -0.378704 0.988059 -4.588684 3.574673 3.454899 7.155457 5.723844 -3.298633 -2.594361 -28.628260 -1.904363 -0.690386 -54.146775 -5.980787 16.486975 1.350144 -18.836669 5.638111 -5.766315 -15.962237 11.038640 31.288543 4.317822 5.274206 54.359341 4.127153 14.154257 -9.996022 25.066261 -3.755657 1.110616 12.851239 4.917822 
0.361881 0.152220 0.992375 85.997169 -0.005290 90.562743 4.946200 5.653347 5.798889 -4.016645 0.986856 -6.802628 1.040706 9.434427 -3.058563 0.000000 -0.000000 0.000000 -6.044463 -3.465489 1.827065 2.273156 -0.812485 -0.757078 4.798948 -3.450684 -5.845014 0.000000 -0.000000 0.000000 -4.569934 3.093312 -9.197384 2.695101 -2.413569 15.742017 -0.384531 0.975472 -4.623143 3.603019 3.498967 7.213544 5.721871 -3.346695 -2.645300 -28.605941 -1.954485 -0.658153 -54.202612 -5.967520 16.467687 1.345361 -18.996562 5.458184 -5.809588 -15.640516 10.905521 31.279715 4.377472 5.356685 54.382185 4.167885 14.128670 -10.018988 25.062297 -3.927213 1.245123 12.779275 4.945130 
0.361933 0.152244 0.992290 86.032924 -0.002690 90.626024 4.936375 5.641688 5.717211 -4.034175 0.954675 -6.794434 0.952458 9.466889 -3.048586 0.000000 -0.000000 0.000000 -6.041310 -3.438282 1.758615 2.283797 -0.773525 -0.794711 4.828832 -3.549073 -5.846711 0.000000 -0.000000 0.000000 -4.584433 3.092379 -9.286387 2.710863 -2.445504 15.605504 -0.331073 0.943895 -4.455046 3.525325 3.583598 7.102117 5.684365 -3.418719 -2.454712 -28.457846 -1.892089 -0.773263 -54.529991 -6.461970 16.284412 1.267878 -17.962568 5.755670 -5.941974 -16.124554 11.305122 31.167846 4.211151 5.218394 54.483690 4.285203 14.053389 -9.893100 25.022093 -3.548486 1.071778 12.865536 4.951030 
0.362119 0.152106 0.992281 86.030946 0.004081 90.630045 4.922673 5.630897 5.720574 -4.015586 0.975366 -6.807542 0.942762 9.471640 -3.062036 0.000000 -0.000000 0.000000 -6.021330 -3.418947 1.755172 2.271355 -0.770836 -0.813522 4.822891 -3.554296 -5.836044 0.000000 -0.000000 0.000000 -4.586006 3.105148 -9.374188 2.714029 -2.451159 15.606567 -0.324957 0.950510 -4.367843 3.495223 3.640864 7.143019 5.671288 -3.459032 -2.369429 -28.359623 -1.935874 -0.782333 -54.691448 -6.676638 16.173418 1.251244 -17.529155 5.755199 -6.106683 -16.342471 11.390525 31.136032 4.157043 5.238091 54.513912 4.406571 13.958743 -9.836906 24.941101 -3.439985 1.144965 12.921117 4.963765 
0.362236 0.152080 0.992300 86.034846 0.009756 90.660961 4.929853 5.622052 5.688185 -4.026544 1.000162 -6.793064 0.932351 9.483452 -3.030946 0.000000 -0.000000 0.000000 -6.003764 -3.411315 1.747473 2.257336 -0.761755 -0.849173 4.794843 -3.565557 -5.827242 0.000000 -0.000000 0.000000 -4.585232 3.110596 -9.409798 2.685449 -2.445288 15.689610 -0.356008 0.959969 -4.439976 3.558690 3.619641 7.173798 5.632377 -3.484469 -2.350590 -28.401488 -1.887224 -0.840357 -54.603016 -6.571784 16.226664 1.277305 -17.693873 5.644293 -6.115891 -16.284007 11.518635 31.159574 4.274118 5.295549 54.567113 4.304032 14.057739 -9.910923 24.945045 -3.721874 1.045941 12.959398 4.991697 
